<?xml version="1.0" encoding="UTF-8"?><svg id="a" xmlns="http://www.w3.org/2000/svg" width="360" height="64" viewBox="0 0 360 64"><defs><style>.j{fill:#4bb061;}.k{fill:#fff;}.l{fill:#007fac;}.m{fill:#f17c0e;}</style></defs><g><g><path id="b" class="m" d="M144.95,41.9h-2.84V22.11h2.84v19.8Z"/><path class="m" d="M167.42,37.58c-.13-1.02-.19-1.44-.26-2.11-.27,.07-1.81,.26-3.49,.39v-9.13h-2.7v9.29c-.22,0-.42,0-.6,0-2.41,0-5.28-.14-6.26-1.26-.67-.78-.96-2.63-.98-5.46v-7.19h-2.99c0,1.42-.04,5-.04,6.98,0,4.18,.57,6,1.68,7.31,1.44,1.71,4.77,2.18,8.82,2.02,.11,0,.24,0,.37,0v3.49h2.7v-3.75c1.81-.22,3.46-.5,3.75-.57h0Z"/><path id="c" class="l" d="M14.12,30.5l-.03-.92c0-2.1-.34-3.46-1.03-4.08-.69-.63-2.18-.95-4.47-.95s-3.79,.37-4.48,1.11c-.67,.73-1.02,2.35-1.02,4.84H14.12Zm1.58,10.87c-.45,.11-4.34,.8-6.95,.8-3.58,0-5.93-.66-7.04-1.97C.59,38.88,.03,36.14,.03,31.97c0-3.86,.56-6.46,1.68-7.78,1.13-1.32,3.33-1.98,6.61-1.98,3.58,0,5.92,.57,7.04,1.72s1.67,3.58,1.67,7.27v1.52H3.06c0,3.06,.33,5,.98,5.84,.66,.83,2.2,1.25,4.59,1.25s6.35-.46,6.81-.57c.07,.7,.13,1.12,.26,2.13"/><path id="d" class="l" d="M42.81,30.5v-.92c0-2.1-.36-3.46-1.05-4.08-.69-.63-2.18-.95-4.47-.95s-3.79,.37-4.48,1.11c-.69,.73-1.02,2.35-1.02,4.84h11.02Zm1.58,10.87c-.45,.11-4.34,.8-6.95,.8-3.58,0-5.92-.66-7.04-1.97s-1.68-4.05-1.68-8.23c0-3.86,.56-6.46,1.68-7.78s3.33-1.98,6.61-1.98c3.58,0,5.92,.57,7.04,1.72s1.68,3.58,1.68,7.27v1.52h-13.97c0,3.06,.33,5,.99,5.84,.65,.83,2.18,1.25,4.59,1.25s6.35-.46,6.81-.57c.06,.7,.11,1.12,.24,2.13"/><path id="e" class="l" d="M97.75,30.5l-.03-.92c0-2.1-.34-3.46-1.03-4.08-.69-.63-2.18-.95-4.48-.95s-3.79,.37-4.48,1.11c-.69,.73-1.02,2.35-1.02,4.84h11.04Zm1.58,10.87c-.46,.11-4.34,.8-6.95,.8-3.58,0-5.92-.66-7.04-1.97-1.11-1.31-1.67-4.05-1.67-8.23,0-3.86,.56-6.46,1.68-7.78s3.33-1.98,6.61-1.98c3.58,0,5.92,.57,7.04,1.72,1.11,1.15,1.67,3.58,1.67,7.27v1.52h-13.97c0,3.06,.33,5,.99,5.84,.66,.83,2.18,1.25,4.61,1.25,2.28,0,6.35-.46,6.81-.57,.04,.7,.1,1.12,.23,2.13"/><path id="f" class="l" d="M24.34,41.89h-2.84V16.86h2.84v25.04Z"/><path id="g" class="l" d="M50.23,22.49h2.51l.26,2.93,.06,.06c1.09-2.17,3.2-3.25,6.33-3.25,3.29,0,5.28,1.08,5.99,3.25h.07c1.22-2.17,3.45-3.25,6.69-3.25,4.58,0,6.88,2.33,6.88,6.99v12.69h-2.84v-12.97c0-1.71-.3-2.86-.92-3.47s-1.77-.92-3.46-.92c-2.25,0-3.78,.43-4.58,1.26-.8,.85-1.21,2.46-1.21,4.85v11.23h-2.84v-12.69l-.04-.89c0-2.5-1.44-3.76-4.28-3.76-3.86,0-5.82,2.11-5.82,6.32v11.03h-2.84V22.49h.04Z"/><path id="h" class="l" d="M105.47,22.49h2.35l.3,2.64,.09,.06c.86-1.98,3.02-2.97,6.46-2.97,2.77,0,4.65,.49,5.63,1.45,.98,.98,1.48,2.84,1.48,5.6v12.64h-2.84v-13.12c0-1.67-.32-2.79-.95-3.36s-1.87-.86-3.69-.86c-3.99,0-6,1.9-6,5.67v11.67h-2.84V22.49h0Z"/><path id="i" class="l" d="M133.81,22.49l-.26,2.34h-3.81v11.9c0,2.07,.92,3.02,2.76,3.1,.82,.03,2.01,0,2.69-.09l.32,2c-1.08,.32-2.37,.43-2.99,.43-3.75,0-5.61-1.59-5.61-4.75v-12.59h-2.69v-2.34h2.69v-5.92h2.84v5.92h4.06Z"/></g><g><polygon class="j" points="50.23 51.39 50.23 64 163.27 64 167.42 51.39 50.23 51.39"/><g><path class="k" d="M65.81,59.51h-2.18l-.5,1.62h-1.38l2.33-6.88h1.28l2.33,6.88h-1.38l-.49-1.62h-.01Zm-1.82-1.18h1.45l-.73-2.38-.72,2.38Z"/><path class="k" d="M73.68,54.27v6.88h-1.35l-2.53-4.54v4.54h-1.28v-6.88h1.35l2.53,4.54v-4.54h1.28Z"/><path class="k" d="M81.12,59.51h-2.18l-.5,1.62h-1.38l2.33-6.88h1.28l2.33,6.88h-1.38l-.49-1.62h-.01Zm-1.82-1.18h1.45l-.73-2.38-.72,2.38Z"/><path class="k" d="M84.87,61.13l-2.31-6.88h1.41l1.54,5.08,1.54-5.08h1.41l-2.31,6.88h-1.28Z"/><path class="k" d="M94.37,54.27v6.88h-1.35l-2.53-4.54v4.54h-1.28v-6.88h1.35l2.53,4.54v-4.54h1.28Z"/><path class="k" d="M100.02,54.27v1.18h-2.97v1.44h2.38v1.18h-2.38v1.9h3.07v1.18h-4.35v-6.88h4.25Z"/><path class="k" d="M101.07,54.27h5.08v1.18h-1.91v5.69h-1.28v-5.69h-1.91v-1.18h.02Z"/><path class="k" d="M114.1,56.56c-.26-.7-.75-1.19-1.69-1.19-1.06,0-1.95,.75-1.95,2.34s.89,2.34,1.95,2.34c.95,0,1.44-.5,1.69-1.19l1.15,.3c-.33,1.32-1.35,2.08-2.84,2.08-1.72,0-3.25-1.22-3.25-3.52s1.54-3.52,3.25-3.52c1.49,0,2.53,.76,2.84,2.08l-1.15,.27h0Z"/><path class="k" d="M122.64,57.7c0,2.38-1.51,3.52-3.25,3.52s-3.25-1.13-3.25-3.52,1.51-3.52,3.25-3.52,3.25,1.13,3.25,3.52Zm-5.18,0c0,1.62,.92,2.34,1.94,2.34s1.94-.7,1.94-2.34-.92-2.34-1.94-2.34-1.94,.72-1.94,2.34Z"/><path class="k" d="M124,54.27h1.44l1.62,4.29,1.62-4.29h1.44v6.88h-1.28v-4.24l-1.32,3.62h-.92l-1.32-3.62v4.24h-1.28v-6.88h0Z"/><path class="k" d="M132.79,58.45v2.69h-1.28v-6.88h2.58c1.45,0,2.15,.89,2.15,2.1s-.7,2.1-2.15,2.1h-1.3Zm2.17-2.11c0-.63-.34-.92-.9-.92h-1.26v1.82h1.26c.57,0,.9-.27,.9-.9Z"/><path class="k" d="M140.11,59.51h-2.18l-.5,1.62h-1.38l2.33-6.88h1.28l2.33,6.88h-1.38l-.49-1.62h0Zm-1.82-1.18h1.45l-.73-2.38-.72,2.38Z"/><path class="k" d="M148,54.27v6.88h-1.35l-2.53-4.54v4.54h-1.28v-6.88h1.35l2.53,4.54v-4.54h1.28Z"/><path class="k" d="M149.92,54.27l1.25,2.67,1.25-2.67h1.38l-1.98,3.95v2.93h-1.28v-2.93l-1.98-3.95h1.36Z"/></g></g></g><g><g><polygon class="j" points="243.15 51.42 243.15 64 355.83 64 359.97 51.42 243.15 51.42"/><g><path class="k" d="M258.67,59.52h-2.18l-.5,1.62h-1.36l2.32-6.86h1.27l2.32,6.86h-1.37l-.5-1.62Zm-1.8-1.17h1.45l-.73-2.38-.72,2.38Z"/><path class="k" d="M266.53,54.28v6.86h-1.35l-2.52-4.52v4.52h-1.27v-6.86h1.35l2.52,4.52v-4.52h1.27Z"/><path class="k" d="M273.92,59.52h-2.18l-.5,1.62h-1.37l2.32-6.86h1.27l2.32,6.86h-1.37l-.49-1.62h0Zm-1.8-1.17h1.45l-.73-2.38-.72,2.38Z"/><path class="k" d="M277.67,61.14l-2.3-6.86h1.4l1.53,5.07,1.53-5.07h1.4l-2.3,6.86h-1.26Z"/><path class="k" d="M287.13,54.28v6.86h-1.35l-2.52-4.52v4.52h-1.27v-6.86h1.35l2.52,4.52v-4.52h1.27Z"/><path class="k" d="M292.78,54.28v1.17h-2.96v1.43h2.38v1.17h-2.38v1.89h3.06v1.17h-4.34v-6.86h4.24v.03Z"/><path class="k" d="M293.83,54.28h5.07v1.17h-1.9v5.67h-1.27v-5.67h-1.9v-1.17h0Z"/><path class="k" d="M306.81,56.57c-.26-.7-.74-1.19-1.69-1.19-1.06,0-1.95,.74-1.95,2.33s.89,2.33,1.95,2.33c.94,0,1.43-.5,1.69-1.19l1.15,.3c-.33,1.32-1.35,2.08-2.83,2.08-1.72,0-3.24-1.22-3.24-3.51s1.53-3.51,3.24-3.51c1.49,0,2.52,.76,2.83,2.08l-1.15,.27h0Z"/><path class="k" d="M315.33,57.72c0,2.38-1.5,3.51-3.24,3.51s-3.24-1.13-3.24-3.51,1.5-3.51,3.24-3.51,3.24,1.13,3.24,3.51Zm-5.17,0c0,1.62,.92,2.33,1.93,2.33s1.93-.7,1.93-2.33-.92-2.33-1.93-2.33-1.93,.7-1.93,2.33Z"/><path class="k" d="M316.69,54.28h1.43l1.62,4.28,1.62-4.28h1.43v6.86h-1.27v-4.22l-1.32,3.61h-.92l-1.32-3.61v4.22h-1.27v-6.86h0Z"/><path class="k" d="M325.44,58.46v2.68h-1.27v-6.86h2.58c1.45,0,2.15,.89,2.15,2.09s-.7,2.09-2.15,2.09h-1.31Zm2.16-2.09c0-.63-.34-.92-.9-.92h-1.26v1.82h1.26c.56,0,.9-.27,.9-.9Z"/><path class="k" d="M332.74,59.52h-2.18l-.5,1.62h-1.37l2.32-6.86h1.27l2.32,6.86h-1.37l-.49-1.62h0Zm-1.82-1.17h1.45l-.73-2.38-.72,2.38Z"/><path class="k" d="M340.59,54.28v6.86h-1.35l-2.52-4.52v4.52h-1.27v-6.86h1.35l2.52,4.52v-4.52h1.27Z"/><path class="k" d="M342.52,54.28l1.25,2.66,1.25-2.66h1.37l-1.98,3.94v2.92h-1.27v-2.92l-1.98-3.94h1.36Z"/></g></g><g><path class="m" d="M251.47,22.23c-3.29,0-5.51,.66-6.63,1.99-1.13,1.33-1.69,3.92-1.69,7.8,0,4.19,.56,6.94,1.67,8.25,1.12,1.3,3.48,1.98,7.06,1.98,2.63,0,6.53-.69,6.97-.8-.13-1.02-.19-1.43-.26-2.12-.46,.11-4.52,.57-6.83,.57s-3.95-.43-4.61-1.26c-.66-.84-.99-2.81-.99-5.87h14.01v-1.52c0-3.71-.56-6.14-1.67-7.29-1.12-1.16-3.46-1.73-7.04-1.73m-5.25,8.3c0-2.49,.34-4.12,1.03-4.85,.69-.74,2.19-1.12,4.49-1.12s3.79,.31,4.48,.96c.69,.63,1.03,1.99,1.03,4.09l.03,.92h-11.06Z"/><path class="l" d="M329.45,28.17c7.34,0,8.04-5.85,8.1-8.72h13.07v3.44c0,2.02-.09,3.39-2.35,3.39v1.96c.5,.09,.94,.14,1.33,.14,2.59,0,3.89-1.56,3.89-4.68V6.57c0-4.39-4.17-4.34-4.17-4.34h-14.66V18.88c0,1.8-.73,7.06-5.01,7.06l-.21,2.23m8.1-23.26h10.88c2.1,0,2.18,1.78,2.18,1.78v2.78h-13.07V4.91h.01Zm0,11.87v-4.64h13.07v4.64h-13.07Zm-14.29,7.94h.28c3.28-.1,5.44-.83,6.51-2.19,1.15-1.46,1.72-4.52,1.72-9.2,0-4.32-.57-7.23-1.73-8.72-1.13-1.43-3.29-2.18-6.51-2.22h-.29c-3.21,.04-5.38,.79-6.5,2.22-1.16,1.49-1.73,4.39-1.73,8.72,0,4.68,.57,7.74,1.73,9.2,1.06,1.37,3.25,2.1,6.51,2.19h0Zm-4.05-18.44c.66-.77,2.06-1.17,4.19-1.23,2.13,.04,3.54,.46,4.19,1.23,.7,.83,1.06,2.63,1.06,5.41h-10.49c-.01-2.79,.34-4.6,1.04-5.41h0Zm9.49,7.89c0,3.42-.34,5.6-1.02,6.53-.63,.87-2.06,1.35-4.28,1.4-2.22-.06-3.65-.52-4.28-1.4-.67-.94-1.02-3.12-1.02-6.53h10.6Zm24.95,25.52v-3.31h0c-.09-4.51-1.96-6.77-5.64-6.77h-25.15c-3.66,0-5.55,2.26-5.64,6.77h0v3.31h-6.31v2.63h49.03v-2.63h-6.3Zm-25.09,0h-8.56v-3.31h0c0-.33,0-.6,.01-.8,.09-2.3,1.23-3.46,3.68-3.46h4.88v7.57h-.01Zm10.98-7.56v7.56h-8.22v-7.56h8.22Zm11.34,7.56h-8.55v-7.57h4.87c2.45,0,3.59,1.16,3.68,3.46v4.11Z"/><path class="l" d="M304.11,27.95c-1.22-.97-3.88-1.46-7.96-1.46s-6.74,.49-7.96,1.46-1.83,3.11-1.83,6.4,.62,5.4,1.83,6.37,3.88,1.47,7.96,1.47,6.74-.49,7.96-1.47c1.22-.97,1.83-3.11,1.83-6.37s-.6-5.43-1.83-6.4m-2.2,11.12c-.8,.56-2.38,.83-5.75,.83s-4.95-.27-5.75-.83c-.8-.54-1.2-2.42-1.2-4.72s.4-4.19,1.2-4.75,2.38-.83,5.75-.83,4.95,.27,5.75,.83,1.2,2.43,1.2,4.75c.01,2.29-.4,4.17-1.2,4.72Zm-22.27-12.33l-10.54,2.82,11.22-16.22-2.52-1.4-2.72,3.95-7.5,2.02,8.13-13.14-2.43-1.46-8.96,14.6,.17,3.65,8.13-2.09-6.66,9.68,.16,4.08,14.14-3.61-.63-2.88h0Zm-9.23,9.35l.74,2.75,11.6-3.28-.74-2.75-11.6,3.28Zm-4.15,1.17l.74,2.73,2.58-.72-.74-2.73-2.58,.72Zm31.83-18.17h0c5.54-5.8,6.79-10.69,6.79-11.98h.01c0-2.51-2.76-2.91-3.69-2.91h-11.45c.23-1.3,.21-2.35-.04-3.15l-2.72,.82c.31,1.09-.16,3.13-1.4,6.14-1.27,3.08-2.38,4.95-3.32,5.6l1.25,2.32c1.4-.74,2.76-2.55,4.08-5.41,1.39,3.62,3.59,6.5,6.1,8.76-5.54,4.85-12.53,6.73-12.53,6.73l1.79,2.25c5.65-1.82,9.88-4.39,13.03-7.13,3.15,2.73,7.37,5.31,13.03,7.13l1.79-2.25s-7.16-2.06-12.7-6.91h-.02Zm-2.25-1.6c-5.74-5.07-6.76-10.58-6.76-10.58,0,0,8.9,0,10.98,0,2.32,0,2.03,1.6,1.78,2.29-1.2,3.22-3.44,6-6,8.3Z"/></g></g></svg>